Patient4_TMGait_0pt6_01_left_01_EMG.mot
version=1
nRows=40
nColumns=33
inDegrees=no
endheader
time	1LAddLong	2LGlutMax	3LGlutMed	4LIliopsoas	5LSemiMemb	6LBicFemLong	7LRecFem	8LVastMed	9LVastLat	10LGasMed	11LTibAnt	12lTibPost	13LPeroneusLong	14LSol	15LExtDigLong	16LFlexDigLong	17RAddLong	18RGlutMax	19RGlutMed	20RIliopsoas	21RSemiMemb	22RBicFemLong	23RRecFem	24RVastMed	25RVastLat	26RGasMed	27RTibAnt	28RTibPost	29RPeroneusLong	30RSol	31RExtDigLong	32RFlexDigLong
2.02	-0.006561	0.060425	-0.04364	-0.002594	-0.01236	0.060425	-0.07309	0.004272	-0.012512	0.017242	0.014496	-0.005493	-0.003662	0.022583	0.072174	-0.006866	-0.023651	0.076904	-0.49179	-0.15228	0.10544	0.43915	0.10193	-0.084229	-0.015259	0.002747	0.032043	-0.015411	-0.06958	0.056458	0.000305	-0.003052
2.021	-0.007629	0.001221	-0.032349	-0.010681	-0.003815	-0.031586	-0.082397	-0.001526	-0.011597	0.22324	0.013885	-0.001068	0.001373	0.018158	0.065002	-0.001678	-0.098114	0.037231	0.24857	-0.1738	0.091553	0.26916	0.023499	0.011749	-0.031586	-0.000916	0.028839	-0.009613	-0.024567	0.025482	-0.003662	0.003967
2.022	-0.003967	0.040283	-0.047302	0.051727	-0.004272	0.083771	-0.090485	-0.004883	0.002594	0.37323	0.012207	0.013275	0.004272	0.015564	-0.043793	-0.002899	-0.16892	0.044403	0.80093	-0.04364	0.099487	0.1503	-0.001068	0.064697	-0.030518	0.000458	0.022736	-0.010071	0.098267	0.010223	-0.002136	-0.006714
2.023	-0.011139	0.035858	-0.025482	0.016327	-0.00824	0.19974	-0.096893	0.003357	0.003357	0.24384	0.033569	-0.000305	-0.00351	0.019531	-0.088196	0.005798	-0.15167	-0.002899	0.59845	0.08194	0.036011	0.016785	-0.071564	0.12924	-0.004883	-0.002594	0.016327	-0.007935	0.091553	0.016632	-0.00351	-0.005188
2.024	-0.008698	0.038605	-0.02594	0.007324	-0.002594	0.17563	-0.11383	-0.009766	0.010834	0.10712	0.022278	0.007172	-0.00412	-0.001526	-0.049744	0.023956	-0.083466	-0.070801	0.298	0.15595	0.20996	-0.30792	-0.032349	0.30609	0.066528	-0.001068	0.021057	-0.014954	0.028534	0.027008	-0.002136	-0.004578
2.025	-0.004883	0.021057	-0.049438	-0.00412	-0.010071	-0.067444	-0.11429	-0.001221	-0.016479	-0.13229	0.011749	0.010223	0.00351	-0.042419	-0.020599	0.0383	0.02243	-0.044861	0.087128	0.13138	0.28397	-0.70053	0.089111	0.20309	-0.029144	0.004272	0.019226	-0.006256	-0.016632	0.025635	-0.002594	-0.009918
2.026	-0.010681	0.023041	-0.068817	-0.015106	-0.015411	-0.24597	-0.11551	-0.001221	-0.001068	-0.032654	0.032043	0.003357	0.018921	-0.12314	0.013428	-0.065918	0.095825	-0.014343	-0.10162	0.11917	0.51758	-1.0283	0.13214	0.11383	-0.15335	0.001373	0.041962	-0.010071	0.1387	-0.007324	-0.000153	-0.006866
2.027	-0.005188	0.019073	-0.074921	-0.01709	0.010071	-0.21469	-0.12802	-0.004883	0.006104	0.06546	0.015564	0.006714	0.019836	-0.069427	0.032654	-0.15625	0.10498	-0.007629	-0.032501	0.072174	0.26733	-1.0872	0.067902	0.20554	-0.094452	-0.001373	0.081787	-0.005188	0.16861	-0.015106	-0.00061	-0.005798
2.028	-0.010681	0.013428	-0.07782	-0.001526	0.014801	-0.32638	-0.12665	0.000305	0.00885	0.06958	-0.006256	0.014954	0.001068	-0.07843	0.04776	0.12604	-0.099945	-0.008545	-0.032806	-0.076904	0.025787	-0.81833	-0.070648	0.29923	-0.032196	-0.000916	0.11749	-0.002594	0.11078	0.006714	0.000458	-0.005493
2.029	-0.004578	0.025787	-0.068359	0.003967	-0.003357	-0.27756	-0.1239	-0.003357	0.003204	0.00885	-0.034943	0.006866	-0.002441	-0.08728	0.071411	0.072479	-0.22766	-0.058289	0.049286	-0.13153	0.27741	-0.51498	0.015106	0.079193	-0.002747	-0.005493	0.1268	-0.011139	0.38025	0.010223	0.001373	-0.007935
2.03	0.000305	0.027313	-0.062866	0.028229	0.011444	-0.16754	-0.14618	-0.001526	-0.007324	0.012512	-0.064697	0.004272	-0.005188	-0.060272	-0.001373	0.060272	-0.18814	-0.09201	0.087128	-0.021973	0.41458	-0.36041	0.11307	-0.024261	0.014648	0	0.089111	-0.011749	0.3598	-0.016327	-0.003357	-0.006409
2.031	-0.01236	0.018768	-0.076599	0.0177	0.014954	-0.0354	-0.12054	0.002899	-0.006104	0.029144	-0.061188	0.010986	-0.005646	-0.103	-0.046692	-0.042572	-0.10742	-0.12558	0.076599	0.06958	0.21988	-0.34347	0.19745	-0.002289	-0.005951	0.005951	-0.092316	-0.014496	0.0914	-0.023041	-0.00412	-0.007935
2.032	-0.005646	0.021057	-0.071869	0.009613	-0.002441	-0.014191	-0.14572	0.003052	0.004272	-0.11307	-0.071716	0.019531	0.006256	-0.10315	-0.081329	-0.029755	0.003357	-0.13016	0.21668	0.07309	-0.041046	-0.084381	0.23514	-0.10071	-0.009003	0.001373	-0.13001	-0.012817	0.01236	0.030518	-0.001068	0.000153
2.033	-0.009766	0.027618	-0.056458	0.016785	-0.005341	-0.052948	-0.13977	0.001678	-0.00061	-0.31555	-0.010529	0.007935	0.022736	-0.00412	-0.04425	-0.075531	0.066071	-0.16098	0.1236	-0.14999	0.010376	0.13275	0.046844	-0.10803	0.11322	-0.006256	-0.025787	-0.023651	0.13306	0.015564	-0.003967	-0.000763
2.034	-0.00351	0.023346	-0.04303	-0.005951	0.024872	-0.020905	-0.13473	0.006104	-0.005798	-0.28946	0.066681	-0.001678	0.035553	0.12543	0.019226	-0.006866	0.029755	-0.11749	0.021667	-0.23666	0.27268	0.47684	-0.028229	0.041046	0.40482	0.001373	0.01297	-0.020447	0.37964	-0.034637	-0.001831	-0.004883
2.035	-0.002899	0.043793	-0.013885	-0.008698	0.020599	-0.037689	-0.1329	0.003204	-0.018005	-0.24139	0.078888	-0.002747	0.037994	0.12299	0.04837	0.12985	-0.052948	-0.073242	0.11673	-0.10742	0.20935	0.52033	-0.063019	0.25772	0.66406	0.000763	-0.004883	-0.018158	0.02182	-0.032501	-0.00412	-0.003052
2.036	-0.01236	0.037537	0.024414	-0.010986	-0.012512	0.031586	-0.14313	0.001221	-0.02533	-0.12909	0.073547	-0.002441	0.006409	0.14664	0.049591	0.02121	-0.075684	-0.060577	0.06897	0.054169	0.13931	0.3949	-0.05661	0.42969	0.68329	0.003967	0.014496	-0.011902	-0.23514	0.015564	-0.00351	0.00061
2.037	-0.00351	0.056458	0.06012	-0.012207	-0.020905	0.055542	-0.16022	0.005798	-0.001678	-0.062103	0.07782	0.003662	-0.047607	0.15701	0.039368	-0.033875	-0.080414	-0.10681	-0.034332	0.15747	0.084534	0.29221	0.022125	0.27008	0.52856	0.001984	0.059052	-0.012665	-0.53635	0.050049	-0.012054	0.000305
2.038	-0.004272	0.049133	0.079498	0.006256	-0.007019	0.12451	-0.15503	0.004578	-0.018463	-0.05722	0.040436	0.00946	-0.046844	0.13702	-0.031738	-0.019989	-0.055084	-0.067444	0.026398	0.29862	-0.085144	0.055237	0.12848	0.26535	0.46081	0.000763	-0.00061	-0.009613	-0.22217	-0.027008	-0.003357	-0.00885
2.039	-0.004272	0.051575	0.0737	-0.005188	-0.00885	0.1236	-0.1561	0.004272	-0.012207	-0.071411	0.00946	0.002289	-0.008545	0.095978	-0.094299	-0.019684	0.002289	-0.026703	-0.059357	0.16693	0.015106	-0.068359	0.086517	0.26199	0.34195	0.000763	-0.073242	-0.009308	-0.11917	-0.12878	-0.004272	-0.003815
2.04	-0.010529	-0.018616	0.068512	-0.014038	-0.013123	0.047913	-0.15915	0.00061	0.016327	-0.050507	-0.042114	0.002594	-0.000763	0.070953	-0.020294	-0.010529	0.092926	-0.037231	-0.11917	-0.022583	-0.039368	-0.13412	-0.027466	-0.057678	0.049133	-0.001221	-0.030365	-0.016632	-0.10361	-0.09201	-0.004578	-0.001831
2.041	-0.006561	0.031891	0.067139	-0.003967	-0.013733	0.02655	-0.16068	-0.001221	0.032349	-0.050049	-0.041351	0.001221	0.059357	0.061035	0.0737	0.00473	0.16144	-0.065765	0.050812	-0.083466	0.06134	-0.1091	-0.076141	-0.29648	-0.327	-0.000153	-0.08728	-0.016174	-0.09201	-0.071869	-0.002441	-0.000458
2.042	-0.008392	0.062866	0.072937	0.024109	-0.000763	0.027466	-0.16083	0.002441	0.01358	-0.046082	0.075378	0.00473	0.063019	0.033417	0.19424	0.00473	0.15167	-0.070038	0.05722	-0.030823	0.41443	-0.10971	0.010223	-0.30746	-0.54764	-0.000153	-0.035248	-0.02121	-0.11139	0.017853	0.00061	-0.005188
2.043	-0.007172	0.068665	0.089417	0.0177	-0.010376	-0.002289	-0.16007	0.005951	0.018311	-0.026398	0.12054	0.000458	0.045319	0.027313	0.1207	0.015869	0.05188	-0.12421	-0.039215	0.045166	0.56229	-0.066071	0.12116	-0.14191	-0.45929	-0.007019	-0.019073	-0.016937	0.047607	0.05249	-0.002289	-0.012817
2.044	-0.007019	0.066528	0.093994	0.007935	0.009918	-0.032196	-0.13718	0.005188	0.013733	0.10056	0.11368	-0.014343	0.026093	0.000305	0.043793	-0.000763	0.016022	-0.1384	-0.012665	0.028229	0.51758	-0.16617	0.059052	-0.098114	-0.20645	-0.00885	0.041199	-0.012665	0.18204	0.009918	-0.001068	-0.00824
2.045	-0.011292	0.074463	0.11658	0.01236	0.019073	-0.10468	-0.14297	0.003204	-0.003357	0.18555	0.15472	0.006256	-0.032349	-0.070801	-0.066986	0.005341	-0.059967	-0.13351	0.054932	0.030823	0.30014	-0.045471	-0.08606	0.067596	-0.12848	0.003357	0.066071	-0.009003	-0.40695	-0.048218	-0.00061	-0.011444
2.046	-0.016785	0.043945	0.11246	0.007324	0.029297	-0.10651	-0.12283	0.008698	-0.007324	0.29236	0.068512	0.009308	-0.026703	-0.112	-0.10513	-0.006104	0.010834	-0.15686	0.016022	0.088654	-0.025177	0.11093	-0.20355	0.22614	-0.13382	0.004578	0.00885	-0.002747	-0.031281	-0.049286	-0.001526	0.004272
2.047	-0.014191	0.035553	0.1326	0.00351	0.019226	-0.041199	-0.13473	0.009003	-0.002441	0.70007	-0.044556	0.004578	0.037231	-0.14053	-0.15289	-0.006714	0.06546	-0.12726	-0.30197	0.09552	-0.17044	0.11826	-0.11841	0.24994	-0.14374	-0.001831	-0.046082	-0.001831	-0.18341	-0.016937	0	0.001526
2.048	-0.008698	0.048218	0.13382	0.00946	0.010834	-0.016785	-0.15595	0.003204	-0.008392	0.97458	-0.067291	0.011597	-0.041656	-0.19241	-0.054626	-0.015411	0.034943	-0.14999	-0.40604	0.1413	-0.026703	0.17487	0.005035	0.43243	-0.09552	-0.000763	-0.054932	0.000305	-0.28717	0.00061	-0.004578	-0.007935
2.049	0.003967	0.024261	0.13275	0.027924	0.003967	-0.028229	-0.1561	0.004425	-0.002289	1.0835	-0.062103	-0.002899	-0.059662	-0.26901	-0.010529	-0.013885	0.020142	-0.13062	-0.22492	0.032654	0.42938	0.09201	0.1738	0.43701	-0.20493	-0.001526	0.013885	-0.001984	0.2945	0.010986	-0.000153	0.001526
2.05	0.043945	0.014648	0.13031	0.031891	-0.006714	-0.044098	-0.13306	0.007324	-0.010681	0.65338	-0.022583	-0.000458	-0.050964	-0.31601	0.04364	-0.022125	0.031281	-0.11978	0.42648	-0.019531	-0.095367	-0.16251	0.30411	0.2034	-0.37994	-0.005341	0.21378	-0.002136	0.40314	0.011292	-0.002289	-0.003662
2.051	0.062256	0.03952	0.13184	0.016479	-0.00824	-0.073547	-0.13992	-0.001678	-0.016937	0.58334	-0.006104	-0.001984	-0.038605	-0.25772	0.03952	-0.030518	0.021973	-0.087433	0.59036	-0.033417	-0.053101	-0.26154	0.37293	0.2449	-0.18234	-0.002289	0.3093	0.000305	0.14908	-0.074921	-0.003967	-0.00473
2.052	-0.017548	0.052032	0.121	0.007935	-0.017853	-0.13123	-0.14893	0.013123	-0.012207	-0.042114	-0.004578	-0.00351	-0.02594	-0.14908	0.009918	0.023651	-0.016785	-0.13382	0.30212	-0.006409	0.017242	0.085602	0.38971	0.69946	0.009308	0.007019	0.30182	0.004272	-0.18021	-0.10132	-0.00412	-0.005951
2.053	-0.003967	0.075073	0.12085	-0.000458	0.014954	-0.15778	-0.1593	-0.005798	0.002747	-1.1404	-0.011902	-0.00412	-0.0177	0.022125	-0.011597	0.057373	-0.041809	-0.094757	0.0177	-0.018768	0.32944	0.33783	0.19714	0.62912	0.066071	0.000458	0.26749	0.003662	-0.11261	-0.091705	-0.00412	-0.00473
2.054	-0.006409	0.11353	0.1387	-0.005341	0.023346	-0.14679	-0.14603	-0.002747	0.005035	-0.8696	-0.050201	0.001831	0.029144	0.06134	-0.013733	0.037384	-0.011139	-0.19653	0.097656	-0.054779	0.63202	0.43015	-0.079193	0.28534	0.063477	-0.00946	0.38238	0.005188	-0.073242	-0.027008	-0.003357	-0.005951
2.055	-0.004425	0.070648	0.1564	0.007019	0.013733	0.00473	-0.10498	0.003052	-0.021362	-0.55161	-0.001526	0.012054	0.063934	-0.00061	-0.006714	-0.000153	-0.014954	-0.19943	0.17761	-0.061493	0.64758	0.39658	-0.32044	-0.002747	0.19211	-0.006866	0.23789	0.005798	-0.10788	-0.060883	-0.004425	-0.007324
2.056	0.005798	0.057831	0.15305	-0.003357	-0.003204	0.030365	-0.10117	-0.000153	-0.029297	-0.914	-0.007477	0.010986	0.11276	-0.011902	0.000305	-0.031281	0.022278	-0.095367	0.20813	-0.01236	0.26154	0.1294	-0.2887	-0.56351	0.10346	-0.016785	0.30106	0.010223	-0.12985	-0.090179	-0.007324	0.000305
2.057	0.00351	0.080414	0.14603	0.001831	0.005951	0.019379	-0.1004	0.011292	-0.03006	-0.75989	-0.009613	0.011444	0.1326	0.048065	-0.027771	-0.008698	0.072632	-0.049896	0.1619	-0.057831	0.037231	0.052643	-0.12436	-0.97946	0.022888	-0.002289	0.51392	0.01297	-0.054321	-0.12207	-0.004272	0.005646
2.058	0.005188	0.079041	0.15823	0.007935	0.04837	0.056152	-0.10498	0.005493	-0.039825	0.029297	-0.015259	0.025177	0.10727	0.1358	-0.029755	-0.00061	0.035553	-0.043488	0.023804	-0.046844	-0.34531	0.16556	-0.35416	-0.95825	0.026855	0.003967	-0.056915	0.014648	0.215	-0.14465	-0.004272	-0.003662
2.059	-0.003357	0.034332	0.15152	-0.005646	0.037384	0.16892	-0.075226	0.010529	-0.053101	0.13443	-0.066681	0.019073	0.052185	0.002594	-0.026093	0.011902	-0.017548	-0.039825	-0.21637	-0.066528	0.057983	0.11841	-0.54382	-0.57709	0.23239	0.00824	-1.4865	0.012512	0.38132	-0.13702	-0.00351	-0.004272
